<?xml version="1.0" encoding="UTF-8" standalone="no"?>
<!DOCTYPE svg PUBLIC "-//W3C//DTD SVG 1.1//EN"
 "http://www.w3.org/Graphics/SVG/1.1/DTD/svg11.dtd">
<!-- Generated by graphviz version 9.0.0 (20230911.1827)
 -->
<!-- Pages: 1 -->
<svg width="1088pt" height="1416pt"
 viewBox="0.00 0.00 1087.85 1415.82" xmlns="http://www.w3.org/2000/svg" xmlns:xlink="http://www.w3.org/1999/xlink">
<g id="graph0" class="graph" transform="scale(1 1) rotate(0) translate(4 1411.82)">
<polygon fill="white" stroke="none" points="-4,4 -4,-1411.82 1083.85,-1411.82 1083.85,4 -4,4"/>
<!-- run -->
<g id="node1" class="node">
<title>run</title>
<polygon fill="none" stroke="black" points="8,-1143.42 8,-1172.62 284.05,-1172.62 284.05,-1143.42 8,-1143.42"/>
<text text-anchor="start" x="133.14" y="-1154.22" font-family="Helvetica,sans-Serif" font-weight="bold" font-size="16.00">run</text>
<polygon fill="none" stroke="black" points="8,-1116.62 8,-1143.42 284.05,-1143.42 284.05,-1116.62 8,-1116.62"/>
<text text-anchor="start" x="13" y="-1126.82" font-family="Helvetica,sans-Serif" text-decoration="underline" font-size="14.00">id</text>
<text text-anchor="start" x="23.9" y="-1126.82" font-family="Helvetica,sans-Serif" font-size="14.00"> [INTEGER]</text>
<text text-anchor="start" x="97.79" y="-1126.82" font-family="Helvetica,sans-Serif" font-size="14.00"> NOT NULL</text>
<polygon fill="none" stroke="black" points="8,-1089.82 8,-1116.62 284.05,-1116.62 284.05,-1089.82 8,-1089.82"/>
<text text-anchor="start" x="13" y="-1100.02" font-family="Helvetica,sans-Serif" font-size="14.00">timestamp_start</text>
<text text-anchor="start" x="112.59" y="-1100.02" font-family="Helvetica,sans-Serif" font-size="14.00"> [TIMESTAMP]</text>
<text text-anchor="start" x="205.92" y="-1100.02" font-family="Helvetica,sans-Serif" font-size="14.00"> NOT NULL</text>
<polygon fill="none" stroke="black" points="8,-1063.02 8,-1089.82 284.05,-1089.82 284.05,-1063.02 8,-1063.02"/>
<text text-anchor="start" x="13" y="-1073.22" font-family="Helvetica,sans-Serif" font-size="14.00">timestamp_stop</text>
<text text-anchor="start" x="111.82" y="-1073.22" font-family="Helvetica,sans-Serif" font-size="14.00"> [TIMESTAMP]</text>
<text text-anchor="start" x="205.16" y="-1073.22" font-family="Helvetica,sans-Serif" font-size="14.00"> NOT NULL</text>
</g>
<!-- ln_run -->
<g id="node2" class="node">
<title>ln_run</title>
<polygon fill="none" stroke="black" points="415.45,-1164.02 415.45,-1193.22 640.98,-1193.22 640.98,-1164.02 415.45,-1164.02"/>
<text text-anchor="start" x="503.77" y="-1174.82" font-family="Helvetica,sans-Serif" font-weight="bold" font-size="16.00">ln_run</text>
<polygon fill="none" stroke="black" points="415.45,-1137.22 415.45,-1164.02 640.98,-1164.02 640.98,-1137.22 415.45,-1137.22"/>
<text text-anchor="start" x="420.45" y="-1147.42" font-family="Helvetica,sans-Serif" text-decoration="underline" font-size="14.00">run_id</text>
<text text-anchor="start" x="459.36" y="-1147.42" font-family="Helvetica,sans-Serif" font-size="14.00"> [INTEGER]</text>
<text text-anchor="start" x="533.26" y="-1147.42" font-family="Helvetica,sans-Serif" font-size="14.00"> NOT NULL</text>
<polygon fill="none" stroke="black" points="415.45,-1110.42 415.45,-1137.22 640.98,-1137.22 640.98,-1110.42 415.45,-1110.42"/>
<text text-anchor="start" x="420.45" y="-1120.62" font-family="Helvetica,sans-Serif" font-size="14.00">ln_node_id</text>
<text text-anchor="start" x="488.96" y="-1120.62" font-family="Helvetica,sans-Serif" font-size="14.00"> [INTEGER]</text>
<text text-anchor="start" x="562.85" y="-1120.62" font-family="Helvetica,sans-Serif" font-size="14.00"> NOT NULL</text>
</g>
<!-- run&#45;&#45;ln_run -->
<g id="edge1" class="edge">
<title>run&#45;&#45;ln_run</title>
<path fill="none" stroke="#7f7f7f" stroke-dasharray="5,2" d="M291.84,-1130.77C330.03,-1134.18 370.81,-1137.83 407.52,-1141.11"/>
<text text-anchor="start" x="400.52" y="-1128.51" font-family="Times,serif" font-size="14.00">1</text>
<text text-anchor="start" x="291.84" y="-1118.17" font-family="Times,serif" font-size="14.00">1</text>
</g>
<!-- pid_run -->
<g id="node3" class="node">
<title>pid_run</title>
<polygon fill="none" stroke="black" points="415.45,-786.02 415.45,-815.22 640.98,-815.22 640.98,-786.02 415.45,-786.02"/>
<text text-anchor="start" x="498.88" y="-796.82" font-family="Helvetica,sans-Serif" font-weight="bold" font-size="16.00">pid_run</text>
<polygon fill="none" stroke="black" points="415.45,-759.22 415.45,-786.02 640.98,-786.02 640.98,-759.22 415.45,-759.22"/>
<text text-anchor="start" x="420.45" y="-769.42" font-family="Helvetica,sans-Serif" text-decoration="underline" font-size="14.00">run_id</text>
<text text-anchor="start" x="459.36" y="-769.42" font-family="Helvetica,sans-Serif" font-size="14.00"> [INTEGER]</text>
<text text-anchor="start" x="533.26" y="-769.42" font-family="Helvetica,sans-Serif" font-size="14.00"> NOT NULL</text>
<polygon fill="none" stroke="black" points="415.45,-732.42 415.45,-759.22 640.98,-759.22 640.98,-732.42 415.45,-732.42"/>
<text text-anchor="start" x="420.45" y="-742.62" font-family="Helvetica,sans-Serif" font-size="14.00">ln_node_id</text>
<text text-anchor="start" x="488.96" y="-742.62" font-family="Helvetica,sans-Serif" font-size="14.00"> [INTEGER]</text>
<text text-anchor="start" x="562.85" y="-742.62" font-family="Helvetica,sans-Serif" font-size="14.00"> NOT NULL</text>
</g>
<!-- run&#45;&#45;pid_run -->
<g id="edge2" class="edge">
<title>run&#45;&#45;pid_run</title>
<path fill="none" stroke="#7f7f7f" stroke-dasharray="5,2" d="M248.18,-1059.24C264.32,-1046.74 279.73,-1032.5 292.05,-1016.82 347.65,-945.98 299.89,-889.97 365.05,-827.82 377.29,-816.14 392.11,-806.99 407.77,-799.81"/>
<text text-anchor="start" x="400.77" y="-787.21" font-family="Times,serif" font-size="14.00">1</text>
<text text-anchor="start" x="241.18" y="-1046.64" font-family="Times,serif" font-size="14.00">1</text>
</g>
<!-- ln_channel_liquidity -->
<g id="node6" class="node">
<title>ln_channel_liquidity</title>
<polygon fill="none" stroke="black" points="772.38,-1024.62 772.38,-1053.82 1071.85,-1053.82 1071.85,-1024.62 772.38,-1024.62"/>
<text text-anchor="start" x="845.21" y="-1035.42" font-family="Helvetica,sans-Serif" font-weight="bold" font-size="16.00">ln_channel_liquidity</text>
<polygon fill="none" stroke="black" points="772.38,-997.82 772.38,-1024.62 1071.85,-1024.62 1071.85,-997.82 772.38,-997.82"/>
<text text-anchor="start" x="777.38" y="-1008.02" font-family="Helvetica,sans-Serif" text-decoration="underline" font-size="14.00">channel_static_id</text>
<text text-anchor="start" x="885.56" y="-1008.02" font-family="Helvetica,sans-Serif" font-size="14.00"> [INTEGER]</text>
<text text-anchor="start" x="959.46" y="-1008.02" font-family="Helvetica,sans-Serif" font-size="14.00"> NOT NULL</text>
<polygon fill="none" stroke="black" points="772.38,-971.02 772.38,-997.82 1071.85,-997.82 1071.85,-971.02 772.38,-971.02"/>
<text text-anchor="start" x="777.38" y="-981.22" font-family="Helvetica,sans-Serif" text-decoration="underline" font-size="14.00">run_id</text>
<text text-anchor="start" x="816.29" y="-981.22" font-family="Helvetica,sans-Serif" font-size="14.00"> [INTEGER]</text>
<text text-anchor="start" x="890.19" y="-981.22" font-family="Helvetica,sans-Serif" font-size="14.00"> NOT NULL</text>
<polygon fill="none" stroke="black" points="772.38,-944.22 772.38,-971.02 1071.85,-971.02 1071.85,-944.22 772.38,-944.22"/>
<text text-anchor="start" x="777.38" y="-954.42" font-family="Helvetica,sans-Serif" font-size="14.00">liquidity_in_pending_sat</text>
<text text-anchor="start" x="926.83" y="-954.42" font-family="Helvetica,sans-Serif" font-size="14.00"> [BIGINT]</text>
<text text-anchor="start" x="985.16" y="-954.42" font-family="Helvetica,sans-Serif" font-size="14.00"> NOT NULL</text>
<polygon fill="none" stroke="black" points="772.38,-917.42 772.38,-944.22 1071.85,-944.22 1071.85,-917.42 772.38,-917.42"/>
<text text-anchor="start" x="777.38" y="-927.62" font-family="Helvetica,sans-Serif" font-size="14.00">liquidity_in_settled_sat</text>
<text text-anchor="start" x="918.25" y="-927.62" font-family="Helvetica,sans-Serif" font-size="14.00"> [BIGINT]</text>
<text text-anchor="start" x="976.58" y="-927.62" font-family="Helvetica,sans-Serif" font-size="14.00"> NOT NULL</text>
<polygon fill="none" stroke="black" points="772.38,-890.62 772.38,-917.42 1071.85,-917.42 1071.85,-890.62 772.38,-890.62"/>
<text text-anchor="start" x="777.38" y="-900.82" font-family="Helvetica,sans-Serif" font-size="14.00">liquidity_out_pending_sat</text>
<text text-anchor="start" x="935.39" y="-900.82" font-family="Helvetica,sans-Serif" font-size="14.00"> [BIGINT]</text>
<text text-anchor="start" x="993.73" y="-900.82" font-family="Helvetica,sans-Serif" font-size="14.00"> NOT NULL</text>
<polygon fill="none" stroke="black" points="772.38,-863.82 772.38,-890.62 1071.85,-890.62 1071.85,-863.82 772.38,-863.82"/>
<text text-anchor="start" x="777.38" y="-874.02" font-family="Helvetica,sans-Serif" font-size="14.00">liquidity_out_settled_sat</text>
<text text-anchor="start" x="926.81" y="-874.02" font-family="Helvetica,sans-Serif" font-size="14.00"> [BIGINT]</text>
<text text-anchor="start" x="985.15" y="-874.02" font-family="Helvetica,sans-Serif" font-size="14.00"> NOT NULL</text>
</g>
<!-- ln_run&#45;&#45;ln_channel_liquidity -->
<g id="edge6" class="edge">
<title>ln_run&#45;&#45;ln_channel_liquidity</title>
<path fill="none" stroke="#7f7f7f" stroke-dasharray="5,2" d="M648.64,-1115.44C663.23,-1110.01 677.77,-1104.1 691.38,-1097.82 716.88,-1086.04 743.1,-1072.1 768.29,-1057.68"/>
<text text-anchor="start" x="761.29" y="-1061.88" font-family="Times,serif" font-size="14.00">1</text>
<text text-anchor="start" x="648.64" y="-1102.84" font-family="Times,serif" font-size="14.00">1</text>
</g>
<!-- ln_channel_policy -->
<g id="node7" class="node">
<title>ln_channel_policy</title>
<polygon fill="none" stroke="black" points="789.51,-1374.62 789.51,-1403.82 1054.72,-1403.82 1054.72,-1374.62 789.51,-1374.62"/>
<text text-anchor="start" x="852.76" y="-1385.42" font-family="Helvetica,sans-Serif" font-weight="bold" font-size="16.00">ln_channel_policy</text>
<polygon fill="none" stroke="black" points="789.51,-1347.82 789.51,-1374.62 1054.72,-1374.62 1054.72,-1347.82 789.51,-1347.82"/>
<text text-anchor="start" x="794.51" y="-1358.02" font-family="Helvetica,sans-Serif" text-decoration="underline" font-size="14.00">channel_static_id</text>
<text text-anchor="start" x="902.7" y="-1358.02" font-family="Helvetica,sans-Serif" font-size="14.00"> [INTEGER]</text>
<text text-anchor="start" x="976.59" y="-1358.02" font-family="Helvetica,sans-Serif" font-size="14.00"> NOT NULL</text>
<polygon fill="none" stroke="black" points="789.51,-1321.02 789.51,-1347.82 1054.72,-1347.82 1054.72,-1321.02 789.51,-1321.02"/>
<text text-anchor="start" x="794.51" y="-1331.22" font-family="Helvetica,sans-Serif" text-decoration="underline" font-size="14.00">fetch_type</text>
<text text-anchor="start" x="859.11" y="-1331.22" font-family="Helvetica,sans-Serif" font-size="14.00"> [VARCHAR(5)]</text>
<text text-anchor="start" x="956.35" y="-1331.22" font-family="Helvetica,sans-Serif" font-size="14.00"> NOT NULL</text>
<polygon fill="none" stroke="black" points="789.51,-1294.22 789.51,-1321.02 1054.72,-1321.02 1054.72,-1294.22 789.51,-1294.22"/>
<text text-anchor="start" x="794.51" y="-1304.42" font-family="Helvetica,sans-Serif" text-decoration="underline" font-size="14.00">local</text>
<text text-anchor="start" x="823.31" y="-1304.42" font-family="Helvetica,sans-Serif" font-size="14.00"> [BOOLEAN]</text>
<text text-anchor="start" x="902.66" y="-1304.42" font-family="Helvetica,sans-Serif" font-size="14.00"> NOT NULL</text>
<polygon fill="none" stroke="black" points="789.51,-1267.42 789.51,-1294.22 1054.72,-1294.22 1054.72,-1267.42 789.51,-1267.42"/>
<text text-anchor="start" x="794.51" y="-1277.62" font-family="Helvetica,sans-Serif" text-decoration="underline" font-size="14.00">run_id</text>
<text text-anchor="start" x="833.43" y="-1277.62" font-family="Helvetica,sans-Serif" font-size="14.00"> [INTEGER]</text>
<text text-anchor="start" x="907.33" y="-1277.62" font-family="Helvetica,sans-Serif" font-size="14.00"> NOT NULL</text>
<polygon fill="none" stroke="black" points="789.51,-1240.62 789.51,-1267.42 1054.72,-1267.42 1054.72,-1240.62 789.51,-1240.62"/>
<text text-anchor="start" x="794.51" y="-1250.82" font-family="Helvetica,sans-Serif" font-size="14.00">basefee_msat</text>
<text text-anchor="start" x="882.46" y="-1250.82" font-family="Helvetica,sans-Serif" font-size="14.00"> [BIGINT]</text>
<text text-anchor="start" x="940.79" y="-1250.82" font-family="Helvetica,sans-Serif" font-size="14.00"> NOT NULL</text>
<polygon fill="none" stroke="black" points="789.51,-1213.82 789.51,-1240.62 1054.72,-1240.62 1054.72,-1213.82 789.51,-1213.82"/>
<text text-anchor="start" x="794.51" y="-1224.02" font-family="Helvetica,sans-Serif" font-size="14.00">disabled</text>
<text text-anchor="start" x="846.66" y="-1224.02" font-family="Helvetica,sans-Serif" font-size="14.00"> [BOOLEAN]</text>
<text text-anchor="start" x="926.02" y="-1224.02" font-family="Helvetica,sans-Serif" font-size="14.00"> NOT NULL</text>
<polygon fill="none" stroke="black" points="789.51,-1187.02 789.51,-1213.82 1054.72,-1213.82 1054.72,-1187.02 789.51,-1187.02"/>
<text text-anchor="start" x="794.51" y="-1197.22" font-family="Helvetica,sans-Serif" font-size="14.00">feerate_ppm</text>
<text text-anchor="start" x="873.12" y="-1197.22" font-family="Helvetica,sans-Serif" font-size="14.00"> [BIGINT]</text>
<text text-anchor="start" x="931.46" y="-1197.22" font-family="Helvetica,sans-Serif" font-size="14.00"> NOT NULL</text>
<polygon fill="none" stroke="black" points="789.51,-1160.22 789.51,-1187.02 1054.72,-1187.02 1054.72,-1160.22 789.51,-1160.22"/>
<text text-anchor="start" x="794.51" y="-1170.42" font-family="Helvetica,sans-Serif" font-size="14.00">last_update</text>
<text text-anchor="start" x="866.9" y="-1170.42" font-family="Helvetica,sans-Serif" font-size="14.00"> [BIGINT]</text>
<text text-anchor="start" x="925.24" y="-1170.42" font-family="Helvetica,sans-Serif" font-size="14.00"> NOT NULL</text>
<polygon fill="none" stroke="black" points="789.51,-1133.42 789.51,-1160.22 1054.72,-1160.22 1054.72,-1133.42 789.51,-1133.42"/>
<text text-anchor="start" x="794.51" y="-1143.62" font-family="Helvetica,sans-Serif" font-size="14.00">max_htlc_msat</text>
<text text-anchor="start" x="888.66" y="-1143.62" font-family="Helvetica,sans-Serif" font-size="14.00"> [BIGINT]</text>
<text text-anchor="start" x="946.99" y="-1143.62" font-family="Helvetica,sans-Serif" font-size="14.00"> NOT NULL</text>
<polygon fill="none" stroke="black" points="789.51,-1106.62 789.51,-1133.42 1054.72,-1133.42 1054.72,-1106.62 789.51,-1106.62"/>
<text text-anchor="start" x="794.51" y="-1116.82" font-family="Helvetica,sans-Serif" font-size="14.00">min_htlc_msat</text>
<text text-anchor="start" x="884.77" y="-1116.82" font-family="Helvetica,sans-Serif" font-size="14.00"> [BIGINT]</text>
<text text-anchor="start" x="943.1" y="-1116.82" font-family="Helvetica,sans-Serif" font-size="14.00"> NOT NULL</text>
<polygon fill="none" stroke="black" points="789.51,-1079.82 789.51,-1106.62 1054.72,-1106.62 1054.72,-1079.82 789.51,-1079.82"/>
<text text-anchor="start" x="794.51" y="-1090.02" font-family="Helvetica,sans-Serif" font-size="14.00">timelockdelta</text>
<text text-anchor="start" x="876.22" y="-1090.02" font-family="Helvetica,sans-Serif" font-size="14.00"> [SMALLINT]</text>
<text text-anchor="start" x="956.35" y="-1090.02" font-family="Helvetica,sans-Serif" font-size="14.00"> NOT NULL</text>
</g>
<!-- ln_run&#45;&#45;ln_channel_policy -->
<g id="edge7" class="edge">
<title>ln_run&#45;&#45;ln_channel_policy</title>
<path fill="none" stroke="#7f7f7f" stroke-dasharray="5,2" d="M648.93,-1179.31C690.79,-1188.92 738.16,-1199.8 781.51,-1209.76"/>
<text text-anchor="start" x="774.51" y="-1197.16" font-family="Times,serif" font-size="14.00">1</text>
<text text-anchor="start" x="648.93" y="-1166.71" font-family="Times,serif" font-size="14.00">1</text>
</g>
<!-- pid_peer_controller -->
<g id="node9" class="node">
<title>pid_peer_controller</title>
<polygon fill="none" stroke="black" points="792.24,-422.82 792.24,-452.02 1051.99,-452.02 1051.99,-422.82 792.24,-422.82"/>
<text text-anchor="start" x="847.43" y="-433.62" font-family="Helvetica,sans-Serif" font-weight="bold" font-size="16.00">pid_peer_controller</text>
<polygon fill="none" stroke="black" points="792.24,-396.02 792.24,-422.82 1051.99,-422.82 1051.99,-396.02 792.24,-396.02"/>
<text text-anchor="start" x="797.24" y="-406.22" font-family="Helvetica,sans-Serif" text-decoration="underline" font-size="14.00">peer_id</text>
<text text-anchor="start" x="843.94" y="-406.22" font-family="Helvetica,sans-Serif" font-size="14.00"> [INTEGER]</text>
<text text-anchor="start" x="917.84" y="-406.22" font-family="Helvetica,sans-Serif" font-size="14.00"> NOT NULL</text>
<polygon fill="none" stroke="black" points="792.24,-369.22 792.24,-396.02 1051.99,-396.02 1051.99,-369.22 792.24,-369.22"/>
<text text-anchor="start" x="797.24" y="-379.42" font-family="Helvetica,sans-Serif" text-decoration="underline" font-size="14.00">run_id</text>
<text text-anchor="start" x="836.16" y="-379.42" font-family="Helvetica,sans-Serif" font-size="14.00"> [INTEGER]</text>
<text text-anchor="start" x="910.05" y="-379.42" font-family="Helvetica,sans-Serif" font-size="14.00"> NOT NULL</text>
<polygon fill="none" stroke="black" points="792.24,-342.42 792.24,-369.22 1051.99,-369.22 1051.99,-342.42 792.24,-342.42"/>
<text text-anchor="start" x="797.24" y="-352.62" font-family="Helvetica,sans-Serif" font-size="14.00">pid_controller_id</text>
<text text-anchor="start" x="899.97" y="-352.62" font-family="Helvetica,sans-Serif" font-size="14.00"> [INTEGER]</text>
<text text-anchor="start" x="973.87" y="-352.62" font-family="Helvetica,sans-Serif" font-size="14.00"> NOT NULL</text>
<polygon fill="none" stroke="black" points="792.24,-315.62 792.24,-342.42 1051.99,-342.42 1051.99,-315.62 792.24,-315.62"/>
<text text-anchor="start" x="797.24" y="-325.82" font-family="Helvetica,sans-Serif" font-size="14.00">target</text>
<text text-anchor="start" x="833.04" y="-325.82" font-family="Helvetica,sans-Serif" font-size="14.00"> [FLOAT]</text>
<text text-anchor="start" x="889.83" y="-325.82" font-family="Helvetica,sans-Serif" font-size="14.00"> NOT NULL</text>
</g>
<!-- pid_run&#45;&#45;pid_peer_controller -->
<g id="edge13" class="edge">
<title>pid_run&#45;&#45;pid_peer_controller</title>
<path fill="none" stroke="#7f7f7f" stroke-dasharray="5,2" d="M648.64,-748.41C664.39,-741.15 679.25,-731.82 691.38,-719.82 762.2,-649.71 706.76,-589.12 764.38,-507.82 777.82,-488.85 794.96,-471.32 812.95,-455.77"/>
<text text-anchor="start" x="805.95" y="-459.97" font-family="Times,serif" font-size="14.00">1</text>
<text text-anchor="start" x="648.64" y="-744.21" font-family="Times,serif" font-size="14.00">1</text>
</g>
<!-- pid_result -->
<g id="node10" class="node">
<title>pid_result</title>
<polygon fill="none" stroke="black" points="781.73,-802.42 781.73,-831.62 1062.5,-831.62 1062.5,-802.42 781.73,-802.42"/>
<text text-anchor="start" x="883.88" y="-813.22" font-family="Helvetica,sans-Serif" font-weight="bold" font-size="16.00">pid_result</text>
<polygon fill="none" stroke="black" points="781.73,-775.62 781.73,-802.42 1062.5,-802.42 1062.5,-775.62 781.73,-775.62"/>
<text text-anchor="start" x="786.73" y="-785.82" font-family="Helvetica,sans-Serif" text-decoration="underline" font-size="14.00">channel_static_id</text>
<text text-anchor="start" x="894.92" y="-785.82" font-family="Helvetica,sans-Serif" font-size="14.00"> [INTEGER]</text>
<text text-anchor="start" x="968.81" y="-785.82" font-family="Helvetica,sans-Serif" font-size="14.00"> NOT NULL</text>
<polygon fill="none" stroke="black" points="781.73,-748.82 781.73,-775.62 1062.5,-775.62 1062.5,-748.82 781.73,-748.82"/>
<text text-anchor="start" x="786.73" y="-759.02" font-family="Helvetica,sans-Serif" text-decoration="underline" font-size="14.00">run_id</text>
<text text-anchor="start" x="825.65" y="-759.02" font-family="Helvetica,sans-Serif" font-size="14.00"> [INTEGER]</text>
<text text-anchor="start" x="899.54" y="-759.02" font-family="Helvetica,sans-Serif" font-size="14.00"> NOT NULL</text>
<polygon fill="none" stroke="black" points="781.73,-722.02 781.73,-748.82 1062.5,-748.82 1062.5,-722.02 781.73,-722.02"/>
<text text-anchor="start" x="786.73" y="-732.22" font-family="Helvetica,sans-Serif" font-size="14.00">feerate_recommended</text>
<text text-anchor="start" x="927.59" y="-732.22" font-family="Helvetica,sans-Serif" font-size="14.00"> [FLOAT]</text>
<text text-anchor="start" x="984.38" y="-732.22" font-family="Helvetica,sans-Serif" font-size="14.00"> NOT NULL</text>
</g>
<!-- pid_run&#45;&#45;pid_result -->
<g id="edge15" class="edge">
<title>pid_run&#45;&#45;pid_result</title>
<path fill="none" stroke="#7f7f7f" stroke-dasharray="5,2" d="M648.93,-774.73C688.32,-775.03 732.58,-775.37 773.78,-775.69"/>
<text text-anchor="start" x="766.78" y="-763.09" font-family="Times,serif" font-size="14.00">1</text>
<text text-anchor="start" x="648.93" y="-762.13" font-family="Times,serif" font-size="14.00">1</text>
</g>
<!-- pid_feelevel_controller -->
<g id="node11" class="node">
<title>pid_feelevel_controller</title>
<polygon fill="none" stroke="black" points="792.24,-627.82 792.24,-657.02 1051.99,-657.02 1051.99,-627.82 792.24,-627.82"/>
<text text-anchor="start" x="834.97" y="-638.62" font-family="Helvetica,sans-Serif" font-weight="bold" font-size="16.00">pid_feelevel_controller</text>
<polygon fill="none" stroke="black" points="792.24,-601.02 792.24,-627.82 1051.99,-627.82 1051.99,-601.02 792.24,-601.02"/>
<text text-anchor="start" x="797.24" y="-611.22" font-family="Helvetica,sans-Serif" text-decoration="underline" font-size="14.00">pid_controller_id</text>
<text text-anchor="start" x="899.97" y="-611.22" font-family="Helvetica,sans-Serif" font-size="14.00"> [INTEGER]</text>
<text text-anchor="start" x="973.87" y="-611.22" font-family="Helvetica,sans-Serif" font-size="14.00"> NOT NULL</text>
<polygon fill="none" stroke="black" points="792.24,-574.22 792.24,-601.02 1051.99,-601.02 1051.99,-574.22 792.24,-574.22"/>
<text text-anchor="start" x="797.24" y="-584.42" font-family="Helvetica,sans-Serif" text-decoration="underline" font-size="14.00">run_id</text>
<text text-anchor="start" x="836.16" y="-584.42" font-family="Helvetica,sans-Serif" font-size="14.00"> [INTEGER]</text>
<text text-anchor="start" x="910.05" y="-584.42" font-family="Helvetica,sans-Serif" font-size="14.00"> NOT NULL</text>
<polygon fill="none" stroke="black" points="792.24,-547.42 792.24,-574.22 1051.99,-574.22 1051.99,-547.42 792.24,-547.42"/>
<text text-anchor="start" x="797.24" y="-557.62" font-family="Helvetica,sans-Serif" font-size="14.00">feerate_local</text>
<text text-anchor="start" x="877.4" y="-557.62" font-family="Helvetica,sans-Serif" font-size="14.00"> [FLOAT]</text>
<text text-anchor="start" x="934.19" y="-557.62" font-family="Helvetica,sans-Serif" font-size="14.00"> NOT NULL</text>
<polygon fill="none" stroke="black" points="792.24,-520.62 792.24,-547.42 1051.99,-547.42 1051.99,-520.62 792.24,-520.62"/>
<text text-anchor="start" x="797.24" y="-530.82" font-family="Helvetica,sans-Serif" font-size="14.00">feerate_target</text>
<text text-anchor="start" x="884.41" y="-530.82" font-family="Helvetica,sans-Serif" font-size="14.00"> [FLOAT]</text>
<text text-anchor="start" x="941.2" y="-530.82" font-family="Helvetica,sans-Serif" font-size="14.00"> NOT NULL</text>
</g>
<!-- pid_run&#45;&#45;pid_feelevel_controller -->
<g id="edge14" class="edge">
<title>pid_run&#45;&#45;pid_feelevel_controller</title>
<path fill="none" stroke="#7f7f7f" stroke-dasharray="5,2" d="M648.92,-736.94C663.39,-731.61 677.83,-725.86 691.38,-719.82 729.43,-702.83 769.37,-681.43 805.08,-660.87"/>
<text text-anchor="start" x="798.08" y="-665.07" font-family="Times,serif" font-size="14.00">1</text>
<text text-anchor="start" x="648.92" y="-724.34" font-family="Times,serif" font-size="14.00">1</text>
</g>
<!-- ln_node -->
<g id="node4" class="node">
<title>ln_node</title>
<polygon fill="none" stroke="black" points="25.49,-975.02 25.49,-1004.22 266.56,-1004.22 266.56,-975.02 25.49,-975.02"/>
<text text-anchor="start" x="115.36" y="-985.82" font-family="Helvetica,sans-Serif" font-weight="bold" font-size="16.00">ln_node</text>
<polygon fill="none" stroke="black" points="25.49,-948.22 25.49,-975.02 266.56,-975.02 266.56,-948.22 25.49,-948.22"/>
<text text-anchor="start" x="30.49" y="-958.42" font-family="Helvetica,sans-Serif" text-decoration="underline" font-size="14.00">id</text>
<text text-anchor="start" x="41.38" y="-958.42" font-family="Helvetica,sans-Serif" font-size="14.00"> [INTEGER]</text>
<text text-anchor="start" x="115.28" y="-958.42" font-family="Helvetica,sans-Serif" font-size="14.00"> NOT NULL</text>
<polygon fill="none" stroke="black" points="25.49,-921.42 25.49,-948.22 266.56,-948.22 266.56,-921.42 25.49,-921.42"/>
<text text-anchor="start" x="30.49" y="-931.62" font-family="Helvetica,sans-Serif" font-size="14.00">pub_key</text>
<text text-anchor="start" x="83.42" y="-931.62" font-family="Helvetica,sans-Serif" font-size="14.00"> [VARCHAR(66)]</text>
<text text-anchor="start" x="188.44" y="-931.62" font-family="Helvetica,sans-Serif" font-size="14.00"> NOT NULL</text>
</g>
<!-- ln_node&#45;&#45;ln_run -->
<g id="edge3" class="edge">
<title>ln_node&#45;&#45;ln_run</title>
<path fill="none" stroke="#7f7f7f" stroke-dasharray="5,2" d="M223.78,-1008.06C245.92,-1021.33 270.05,-1035.99 292.05,-1049.82 324.93,-1070.47 330.11,-1080.87 365.05,-1097.82 378.53,-1104.35 393.01,-1110.41 407.55,-1115.93"/>
<text text-anchor="start" x="383.44" y="-1103.33" font-family="Times,serif" font-size="14.00">0..N</text>
<text text-anchor="start" x="216.78" y="-1012.26" font-family="Times,serif" font-size="14.00">1</text>
</g>
<!-- ln_node&#45;&#45;pid_run -->
<g id="edge5" class="edge">
<title>ln_node&#45;&#45;pid_run</title>
<path fill="none" stroke="#7f7f7f" stroke-dasharray="5,2" d="M211.09,-917.61C253.39,-889.18 310.82,-853.21 365.05,-827.82 378.62,-821.46 393.15,-815.51 407.72,-810.06"/>
<text text-anchor="start" x="383.61" y="-814.26" font-family="Times,serif" font-size="14.00">0..N</text>
<text text-anchor="start" x="204.09" y="-905.01" font-family="Times,serif" font-size="14.00">1</text>
</g>
<!-- ln_channel_static -->
<g id="node5" class="node">
<title>ln_channel_static</title>
<polygon fill="none" stroke="black" points="401.82,-1055.42 401.82,-1084.62 654.6,-1084.62 654.6,-1055.42 401.82,-1055.42"/>
<text text-anchor="start" x="461.08" y="-1066.22" font-family="Helvetica,sans-Serif" font-weight="bold" font-size="16.00">ln_channel_static</text>
<polygon fill="none" stroke="black" points="401.82,-1028.62 401.82,-1055.42 654.6,-1055.42 654.6,-1028.62 401.82,-1028.62"/>
<text text-anchor="start" x="406.82" y="-1038.82" font-family="Helvetica,sans-Serif" text-decoration="underline" font-size="14.00">id</text>
<text text-anchor="start" x="417.72" y="-1038.82" font-family="Helvetica,sans-Serif" font-size="14.00"> [INTEGER]</text>
<text text-anchor="start" x="491.62" y="-1038.82" font-family="Helvetica,sans-Serif" font-size="14.00"> NOT NULL</text>
<polygon fill="none" stroke="black" points="401.82,-1001.82 401.82,-1028.62 654.6,-1028.62 654.6,-1001.82 401.82,-1001.82"/>
<text text-anchor="start" x="406.82" y="-1012.02" font-family="Helvetica,sans-Serif" font-size="14.00">capacity</text>
<text text-anchor="start" x="458.18" y="-1012.02" font-family="Helvetica,sans-Serif" font-size="14.00"> [BIGINT]</text>
<text text-anchor="start" x="516.52" y="-1012.02" font-family="Helvetica,sans-Serif" font-size="14.00"> NOT NULL</text>
<polygon fill="none" stroke="black" points="401.82,-975.02 401.82,-1001.82 654.6,-1001.82 654.6,-975.02 401.82,-975.02"/>
<text text-anchor="start" x="406.82" y="-985.22" font-family="Helvetica,sans-Serif" font-size="14.00">chan_id</text>
<text text-anchor="start" x="455.86" y="-985.22" font-family="Helvetica,sans-Serif" font-size="14.00"> [BIGINT]</text>
<text text-anchor="start" x="514.2" y="-985.22" font-family="Helvetica,sans-Serif" font-size="14.00"> NOT NULL</text>
<polygon fill="none" stroke="black" points="401.82,-948.22 401.82,-975.02 654.6,-975.02 654.6,-948.22 401.82,-948.22"/>
<text text-anchor="start" x="406.82" y="-958.42" font-family="Helvetica,sans-Serif" font-size="14.00">chan_point</text>
<text text-anchor="start" x="475.33" y="-958.42" font-family="Helvetica,sans-Serif" font-size="14.00"> [VARCHAR]</text>
<text text-anchor="start" x="555.45" y="-958.42" font-family="Helvetica,sans-Serif" font-size="14.00"> NOT NULL</text>
<polygon fill="none" stroke="black" points="401.82,-921.42 401.82,-948.22 654.6,-948.22 654.6,-921.42 401.82,-921.42"/>
<text text-anchor="start" x="406.82" y="-931.62" font-family="Helvetica,sans-Serif" font-size="14.00">ln_node_id</text>
<text text-anchor="start" x="475.33" y="-931.62" font-family="Helvetica,sans-Serif" font-size="14.00"> [INTEGER]</text>
<text text-anchor="start" x="549.23" y="-931.62" font-family="Helvetica,sans-Serif" font-size="14.00"> NOT NULL</text>
<polygon fill="none" stroke="black" points="401.82,-894.62 401.82,-921.42 654.6,-921.42 654.6,-894.62 401.82,-894.62"/>
<text text-anchor="start" x="406.82" y="-904.82" font-family="Helvetica,sans-Serif" font-size="14.00">opening_height</text>
<text text-anchor="start" x="502.58" y="-904.82" font-family="Helvetica,sans-Serif" font-size="14.00"> [INTEGER]</text>
<text text-anchor="start" x="576.48" y="-904.82" font-family="Helvetica,sans-Serif" font-size="14.00"> NOT NULL</text>
<polygon fill="none" stroke="black" points="401.82,-867.82 401.82,-894.62 654.6,-894.62 654.6,-867.82 401.82,-867.82"/>
<text text-anchor="start" x="406.82" y="-878.02" font-family="Helvetica,sans-Serif" font-size="14.00">peer_id</text>
<text text-anchor="start" x="453.53" y="-878.02" font-family="Helvetica,sans-Serif" font-size="14.00"> [INTEGER]</text>
<text text-anchor="start" x="527.42" y="-878.02" font-family="Helvetica,sans-Serif" font-size="14.00"> NOT NULL</text>
<polygon fill="none" stroke="black" points="401.82,-841.02 401.82,-867.82 654.6,-867.82 654.6,-841.02 401.82,-841.02"/>
<text text-anchor="start" x="406.82" y="-851.22" font-family="Helvetica,sans-Serif" font-size="14.00">private</text>
<text text-anchor="start" x="448.84" y="-851.22" font-family="Helvetica,sans-Serif" font-size="14.00"> [BOOLEAN]</text>
<text text-anchor="start" x="528.2" y="-851.22" font-family="Helvetica,sans-Serif" font-size="14.00"> NOT NULL</text>
</g>
<!-- ln_node&#45;&#45;ln_channel_static -->
<g id="edge4" class="edge">
<title>ln_node&#45;&#45;ln_channel_static</title>
<path fill="none" stroke="#7f7f7f" stroke-dasharray="5,2" d="M274.41,-962.82C312.83,-962.82 355.08,-962.82 393.87,-962.82"/>
<text text-anchor="start" x="369.76" y="-950.22" font-family="Times,serif" font-size="14.00">0..N</text>
<text text-anchor="start" x="274.41" y="-950.22" font-family="Times,serif" font-size="14.00">1</text>
</g>
<!-- ln_channel_static&#45;&#45;ln_channel_liquidity -->
<g id="edge10" class="edge">
<title>ln_channel_static&#45;&#45;ln_channel_liquidity</title>
<path fill="none" stroke="#7f7f7f" stroke-dasharray="5,2" d="M662.44,-961.46C695.28,-961.12 730.75,-960.76 764.58,-960.41"/>
<text text-anchor="start" x="757.58" y="-947.81" font-family="Times,serif" font-size="14.00">1</text>
<text text-anchor="start" x="662.44" y="-948.86" font-family="Times,serif" font-size="14.00">1</text>
</g>
<!-- ln_channel_static&#45;&#45;ln_channel_policy -->
<g id="edge11" class="edge">
<title>ln_channel_static&#45;&#45;ln_channel_policy</title>
<path fill="none" stroke="#7f7f7f" stroke-dasharray="5,2" d="M662.44,-1057.66C700.83,-1084.99 742.81,-1114.88 781.57,-1142.47"/>
<text text-anchor="start" x="774.57" y="-1129.87" font-family="Times,serif" font-size="14.00">1</text>
<text text-anchor="start" x="662.44" y="-1045.06" font-family="Times,serif" font-size="14.00">1</text>
</g>
<!-- ln_channel_static&#45;&#45;pid_result -->
<g id="edge12" class="edge">
<title>ln_channel_static&#45;&#45;pid_result</title>
<path fill="none" stroke="#7f7f7f" stroke-dasharray="5,2" d="M662.56,-899.21C695.81,-883.38 731.38,-866.46 764.38,-850.82 774.85,-845.85 785.71,-840.71 796.62,-835.55"/>
<text text-anchor="start" x="789.62" y="-839.75" font-family="Times,serif" font-size="14.00">1</text>
<text text-anchor="start" x="662.56" y="-886.61" font-family="Times,serif" font-size="14.00">1</text>
</g>
<!-- ln_channel_peer -->
<g id="node8" class="node">
<title>ln_channel_peer</title>
<polygon fill="none" stroke="black" points="25.49,-303.02 25.49,-332.22 266.56,-332.22 266.56,-303.02 25.49,-303.02"/>
<text text-anchor="start" x="82.89" y="-313.82" font-family="Helvetica,sans-Serif" font-weight="bold" font-size="16.00">ln_channel_peer</text>
<polygon fill="none" stroke="black" points="25.49,-276.22 25.49,-303.02 266.56,-303.02 266.56,-276.22 25.49,-276.22"/>
<text text-anchor="start" x="30.49" y="-286.42" font-family="Helvetica,sans-Serif" text-decoration="underline" font-size="14.00">id</text>
<text text-anchor="start" x="41.38" y="-286.42" font-family="Helvetica,sans-Serif" font-size="14.00"> [INTEGER]</text>
<text text-anchor="start" x="115.28" y="-286.42" font-family="Helvetica,sans-Serif" font-size="14.00"> NOT NULL</text>
<polygon fill="none" stroke="black" points="25.49,-249.42 25.49,-276.22 266.56,-276.22 266.56,-249.42 25.49,-249.42"/>
<text text-anchor="start" x="30.49" y="-259.62" font-family="Helvetica,sans-Serif" font-size="14.00">pub_key</text>
<text text-anchor="start" x="83.42" y="-259.62" font-family="Helvetica,sans-Serif" font-size="14.00"> [VARCHAR(66)]</text>
<text text-anchor="start" x="188.44" y="-259.62" font-family="Helvetica,sans-Serif" font-size="14.00"> NOT NULL</text>
</g>
<!-- ln_channel_peer&#45;&#45;ln_channel_static -->
<g id="edge8" class="edge">
<title>ln_channel_peer&#45;&#45;ln_channel_static</title>
<path fill="none" stroke="#7f7f7f" stroke-dasharray="5,2" d="M157.33,-335.88C181.19,-433.1 247.35,-666.76 365.05,-827.82 373.69,-839.65 383.6,-851.08 394.15,-861.94"/>
<text text-anchor="start" x="370.04" y="-866.14" font-family="Times,serif" font-size="14.00">0..N</text>
<text text-anchor="start" x="150.33" y="-340.08" font-family="Times,serif" font-size="14.00">1</text>
</g>
<!-- ln_channel_peer&#45;&#45;pid_peer_controller -->
<g id="edge9" class="edge">
<title>ln_channel_peer&#45;&#45;pid_peer_controller</title>
<path fill="none" stroke="#7f7f7f" stroke-dasharray="5,2" d="M171.19,-245.87C205.45,-187.51 274.21,-88.35 365.05,-47.82 497.49,11.29 563.1,19.87 691.38,-47.82 796.38,-103.22 862.5,-230.61 895.56,-311.64"/>
<text text-anchor="start" x="888.56" y="-299.04" font-family="Times,serif" font-size="14.00">1</text>
<text text-anchor="start" x="164.19" y="-233.27" font-family="Times,serif" font-size="14.00">1</text>
</g>
<!-- pid_controller -->
<g id="node12" class="node">
<title>pid_controller</title>
<polygon fill="none" stroke="black" points="373.05,-677.42 373.05,-706.62 683.38,-706.62 683.38,-677.42 373.05,-677.42"/>
<text text-anchor="start" x="474.87" y="-688.22" font-family="Helvetica,sans-Serif" font-weight="bold" font-size="16.00">pid_controller</text>
<polygon fill="none" stroke="black" points="373.05,-650.62 373.05,-677.42 683.38,-677.42 683.38,-650.62 373.05,-650.62"/>
<text text-anchor="start" x="378.05" y="-660.82" font-family="Helvetica,sans-Serif" text-decoration="underline" font-size="14.00">id</text>
<text text-anchor="start" x="388.94" y="-660.82" font-family="Helvetica,sans-Serif" font-size="14.00"> [INTEGER]</text>
<text text-anchor="start" x="462.84" y="-660.82" font-family="Helvetica,sans-Serif" font-size="14.00"> NOT NULL</text>
<polygon fill="none" stroke="black" points="373.05,-623.82 373.05,-650.62 683.38,-650.62 683.38,-623.82 373.05,-623.82"/>
<text text-anchor="start" x="378.05" y="-634.02" font-family="Helvetica,sans-Serif" font-size="14.00">alpha_d</text>
<text text-anchor="start" x="427.88" y="-634.02" font-family="Helvetica,sans-Serif" font-size="14.00"> [FLOAT]</text>
<text text-anchor="start" x="484.66" y="-634.02" font-family="Helvetica,sans-Serif" font-size="14.00"> NOT NULL</text>
<polygon fill="none" stroke="black" points="373.05,-597.02 373.05,-623.82 683.38,-623.82 683.38,-597.02 373.05,-597.02"/>
<text text-anchor="start" x="378.05" y="-607.22" font-family="Helvetica,sans-Serif" font-size="14.00">alpha_i</text>
<text text-anchor="start" x="423.2" y="-607.22" font-family="Helvetica,sans-Serif" font-size="14.00"> [FLOAT]</text>
<text text-anchor="start" x="479.99" y="-607.22" font-family="Helvetica,sans-Serif" font-size="14.00"> NOT NULL</text>
<polygon fill="none" stroke="black" points="373.05,-570.22 373.05,-597.02 683.38,-597.02 683.38,-570.22 373.05,-570.22"/>
<text text-anchor="start" x="378.05" y="-580.42" font-family="Helvetica,sans-Serif" font-size="14.00">c</text>
<text text-anchor="start" x="385.05" y="-580.42" font-family="Helvetica,sans-Serif" font-size="14.00"> [FLOAT]</text>
<text text-anchor="start" x="441.83" y="-580.42" font-family="Helvetica,sans-Serif" font-size="14.00"> NOT NULL</text>
<polygon fill="none" stroke="black" points="373.05,-543.42 373.05,-570.22 683.38,-570.22 683.38,-543.42 373.05,-543.42"/>
<text text-anchor="start" x="378.05" y="-553.62" font-family="Helvetica,sans-Serif" font-size="14.00">control_factor</text>
<text text-anchor="start" x="462.87" y="-553.62" font-family="Helvetica,sans-Serif" font-size="14.00"> [FLOAT]</text>
<text text-anchor="start" x="519.65" y="-553.62" font-family="Helvetica,sans-Serif" font-size="14.00"> NOT NULL</text>
<polygon fill="none" stroke="black" points="373.05,-516.62 373.05,-543.42 683.38,-543.42 683.38,-516.62 373.05,-516.62"/>
<text text-anchor="start" x="378.05" y="-526.82" font-family="Helvetica,sans-Serif" font-size="14.00">control_variable</text>
<text text-anchor="start" x="476.88" y="-526.82" font-family="Helvetica,sans-Serif" font-size="14.00"> [FLOAT]</text>
<text text-anchor="start" x="533.67" y="-526.82" font-family="Helvetica,sans-Serif" font-size="14.00"> NOT NULL</text>
<polygon fill="none" stroke="black" points="373.05,-489.82 373.05,-516.62 683.38,-516.62 683.38,-489.82 373.05,-489.82"/>
<text text-anchor="start" x="378.05" y="-500.02" font-family="Helvetica,sans-Serif" font-size="14.00">control_variable_last</text>
<text text-anchor="start" x="506.45" y="-500.02" font-family="Helvetica,sans-Serif" font-size="14.00"> [FLOAT]</text>
<text text-anchor="start" x="563.24" y="-500.02" font-family="Helvetica,sans-Serif" font-size="14.00"> NOT NULL</text>
<polygon fill="none" stroke="black" points="373.05,-463.02 373.05,-489.82 683.38,-489.82 683.38,-463.02 373.05,-463.02"/>
<text text-anchor="start" x="378.05" y="-473.22" font-family="Helvetica,sans-Serif" font-size="14.00">conversion_method</text>
<text text-anchor="start" x="500.23" y="-473.22" font-family="Helvetica,sans-Serif" font-size="14.00"> [VARCHAR(11)]</text>
<text text-anchor="start" x="605.25" y="-473.22" font-family="Helvetica,sans-Serif" font-size="14.00"> NOT NULL</text>
<polygon fill="none" stroke="black" points="373.05,-436.22 373.05,-463.02 683.38,-463.02 683.38,-436.22 373.05,-436.22"/>
<text text-anchor="start" x="378.05" y="-446.42" font-family="Helvetica,sans-Serif" font-size="14.00">delta_time</text>
<text text-anchor="start" x="442.64" y="-446.42" font-family="Helvetica,sans-Serif" font-size="14.00"> [FLOAT]</text>
<text text-anchor="start" x="499.43" y="-446.42" font-family="Helvetica,sans-Serif" font-size="14.00"> NOT NULL</text>
<polygon fill="none" stroke="black" points="373.05,-409.42 373.05,-436.22 683.38,-436.22 683.38,-409.42 373.05,-409.42"/>
<text text-anchor="start" x="378.05" y="-419.62" font-family="Helvetica,sans-Serif" font-size="14.00">error</text>
<text text-anchor="start" x="407.61" y="-419.62" font-family="Helvetica,sans-Serif" font-size="14.00"> [FLOAT]</text>
<text text-anchor="start" x="464.39" y="-419.62" font-family="Helvetica,sans-Serif" font-size="14.00"> NOT NULL</text>
<polygon fill="none" stroke="black" points="373.05,-382.62 373.05,-409.42 683.38,-409.42 683.38,-382.62 373.05,-382.62"/>
<text text-anchor="start" x="378.05" y="-392.82" font-family="Helvetica,sans-Serif" font-size="14.00">error_delta_residual</text>
<text text-anchor="start" x="502.56" y="-392.82" font-family="Helvetica,sans-Serif" font-size="14.00"> [FLOAT]</text>
<text text-anchor="start" x="559.35" y="-392.82" font-family="Helvetica,sans-Serif" font-size="14.00"> NOT NULL</text>
<polygon fill="none" stroke="black" points="373.05,-355.82 373.05,-382.62 683.38,-382.62 683.38,-355.82 373.05,-355.82"/>
<text text-anchor="start" x="378.05" y="-366.02" font-family="Helvetica,sans-Serif" font-size="14.00">error_ewma</text>
<text text-anchor="start" x="452.74" y="-366.02" font-family="Helvetica,sans-Serif" font-size="14.00"> [FLOAT]</text>
<text text-anchor="start" x="509.52" y="-366.02" font-family="Helvetica,sans-Serif" font-size="14.00"> NOT NULL</text>
<polygon fill="none" stroke="black" points="373.05,-329.02 373.05,-355.82 683.38,-355.82 683.38,-329.02 373.05,-329.02"/>
<text text-anchor="start" x="378.05" y="-339.22" font-family="Helvetica,sans-Serif" font-size="14.00">gain</text>
<text text-anchor="start" x="404.52" y="-339.22" font-family="Helvetica,sans-Serif" font-size="14.00"> [FLOAT]</text>
<text text-anchor="start" x="461.3" y="-339.22" font-family="Helvetica,sans-Serif" font-size="14.00"> NOT NULL</text>
<polygon fill="none" stroke="black" points="373.05,-302.22 373.05,-329.02 683.38,-329.02 683.38,-302.22 373.05,-302.22"/>
<text text-anchor="start" x="378.05" y="-312.42" font-family="Helvetica,sans-Serif" font-size="14.00">gain_d</text>
<text text-anchor="start" x="420.09" y="-312.42" font-family="Helvetica,sans-Serif" font-size="14.00"> [FLOAT]</text>
<text text-anchor="start" x="476.88" y="-312.42" font-family="Helvetica,sans-Serif" font-size="14.00"> NOT NULL</text>
<polygon fill="none" stroke="black" points="373.05,-275.42 373.05,-302.22 683.38,-302.22 683.38,-275.42 373.05,-275.42"/>
<text text-anchor="start" x="378.05" y="-285.62" font-family="Helvetica,sans-Serif" font-size="14.00">gain_i</text>
<text text-anchor="start" x="415.41" y="-285.62" font-family="Helvetica,sans-Serif" font-size="14.00"> [FLOAT]</text>
<text text-anchor="start" x="472.2" y="-285.62" font-family="Helvetica,sans-Serif" font-size="14.00"> NOT NULL</text>
<polygon fill="none" stroke="black" points="373.05,-248.62 373.05,-275.42 683.38,-275.42 683.38,-248.62 373.05,-248.62"/>
<text text-anchor="start" x="378.05" y="-258.82" font-family="Helvetica,sans-Serif" font-size="14.00">gain_p</text>
<text text-anchor="start" x="420.09" y="-258.82" font-family="Helvetica,sans-Serif" font-size="14.00"> [FLOAT]</text>
<text text-anchor="start" x="476.88" y="-258.82" font-family="Helvetica,sans-Serif" font-size="14.00"> NOT NULL</text>
<polygon fill="none" stroke="black" points="373.05,-221.82 373.05,-248.62 683.38,-248.62 683.38,-221.82 373.05,-221.82"/>
<text text-anchor="start" x="378.05" y="-232.02" font-family="Helvetica,sans-Serif" font-size="14.00">gain_t</text>
<text text-anchor="start" x="416.19" y="-232.02" font-family="Helvetica,sans-Serif" font-size="14.00"> [FLOAT]</text>
<text text-anchor="start" x="472.98" y="-232.02" font-family="Helvetica,sans-Serif" font-size="14.00"> NOT NULL</text>
<polygon fill="none" stroke="black" points="373.05,-195.02 373.05,-221.82 683.38,-221.82 683.38,-195.02 373.05,-195.02"/>
<text text-anchor="start" x="378.05" y="-205.22" font-family="Helvetica,sans-Serif" font-size="14.00">k_d</text>
<text text-anchor="start" x="400.62" y="-205.22" font-family="Helvetica,sans-Serif" font-size="14.00"> [FLOAT]</text>
<text text-anchor="start" x="457.41" y="-205.22" font-family="Helvetica,sans-Serif" font-size="14.00"> NOT NULL</text>
<polygon fill="none" stroke="black" points="373.05,-168.22 373.05,-195.02 683.38,-195.02 683.38,-168.22 373.05,-168.22"/>
<text text-anchor="start" x="378.05" y="-178.42" font-family="Helvetica,sans-Serif" font-size="14.00">k_i</text>
<text text-anchor="start" x="395.94" y="-178.42" font-family="Helvetica,sans-Serif" font-size="14.00"> [FLOAT]</text>
<text text-anchor="start" x="452.73" y="-178.42" font-family="Helvetica,sans-Serif" font-size="14.00"> NOT NULL</text>
<polygon fill="none" stroke="black" points="373.05,-141.42 373.05,-168.22 683.38,-168.22 683.38,-141.42 373.05,-141.42"/>
<text text-anchor="start" x="378.05" y="-151.62" font-family="Helvetica,sans-Serif" font-size="14.00">k_m</text>
<text text-anchor="start" x="404.5" y="-151.62" font-family="Helvetica,sans-Serif" font-size="14.00"> [FLOAT]</text>
<text text-anchor="start" x="461.28" y="-151.62" font-family="Helvetica,sans-Serif" font-size="14.00"> NOT NULL</text>
<polygon fill="none" stroke="black" points="373.05,-114.62 373.05,-141.42 683.38,-141.42 683.38,-114.62 373.05,-114.62"/>
<text text-anchor="start" x="378.05" y="-124.82" font-family="Helvetica,sans-Serif" font-size="14.00">k_p</text>
<text text-anchor="start" x="400.62" y="-124.82" font-family="Helvetica,sans-Serif" font-size="14.00"> [FLOAT]</text>
<text text-anchor="start" x="457.41" y="-124.82" font-family="Helvetica,sans-Serif" font-size="14.00"> NOT NULL</text>
<polygon fill="none" stroke="black" points="373.05,-87.82 373.05,-114.62 683.38,-114.62 683.38,-87.82 373.05,-87.82"/>
<text text-anchor="start" x="378.05" y="-98.02" font-family="Helvetica,sans-Serif" font-size="14.00">k_t</text>
<text text-anchor="start" x="396.72" y="-98.02" font-family="Helvetica,sans-Serif" font-size="14.00"> [FLOAT]</text>
<text text-anchor="start" x="453.51" y="-98.02" font-family="Helvetica,sans-Serif" font-size="14.00"> NOT NULL</text>
<polygon fill="none" stroke="black" points="373.05,-61.02 373.05,-87.82 683.38,-87.82 683.38,-61.02 373.05,-61.02"/>
<text text-anchor="start" x="378.05" y="-71.22" font-family="Helvetica,sans-Serif" font-size="14.00">shift</text>
<text text-anchor="start" x="403.72" y="-71.22" font-family="Helvetica,sans-Serif" font-size="14.00"> [FLOAT]</text>
<text text-anchor="start" x="460.51" y="-71.22" font-family="Helvetica,sans-Serif" font-size="14.00"> NOT NULL</text>
</g>
<!-- pid_controller&#45;&#45;pid_peer_controller -->
<g id="edge16" class="edge">
<title>pid_controller&#45;&#45;pid_peer_controller</title>
<path fill="none" stroke="#7f7f7f" stroke-dasharray="5,2" d="M691.16,-383.82C722.13,-383.82 754.28,-383.82 784.37,-383.82"/>
<text text-anchor="start" x="760.26" y="-371.22" font-family="Times,serif" font-size="14.00">0..N</text>
<text text-anchor="start" x="691.16" y="-371.22" font-family="Times,serif" font-size="14.00">1</text>
</g>
<!-- pid_controller&#45;&#45;pid_feelevel_controller -->
<g id="edge17" class="edge">
<title>pid_controller&#45;&#45;pid_feelevel_controller</title>
<path fill="none" stroke="#7f7f7f" stroke-dasharray="5,2" d="M691.16,-468.53C722.13,-484.73 754.28,-501.55 784.37,-517.28"/>
<text text-anchor="start" x="777.37" y="-504.68" font-family="Times,serif" font-size="14.00">1</text>
<text text-anchor="start" x="691.16" y="-455.93" font-family="Times,serif" font-size="14.00">1</text>
</g>
</g>
</svg>
